# xmcd
#
# Track frame offsets: 
#        150
#        12102
#        23062
#        35112
#        48877
#        63322
#        82712
#        97880
#        109660
#        125507
#        140795
#        154535
#        165287
#        182870
#        196442
#        210325
#        223797
#        237387
#        249072
#        259805
#        273330
#        284580
#        295532
#        307397
#        322585
#        333537
#
# Disc length: 4618 seconds
#
# Revision: 2
# Processed by: cddbd v1.5.2PL0 Copyright (c) Steve Scherf et al.
# Submitted via: ExactAudioCopyFreeDBPlugin 1.0
#
DISCID=6b12081a
DTITLE=Etta James - Etta James:  The Chess Box, 1960-1974  [box set]
DYEAR=2000
DGENRE=Rhythm and Blues
TTITLE0=Would it Make Any Difference to You
TTITLE1=Look Who's Blue
TTITLE2=Payback
TTITLE3=Two Sides (To Every Story)
TTITLE4=At Last (live)
TTITLE5=Baby What You Want Me to Do (live)
TTITLE6=Lovin' You More Every Day
TTITLE7=I Wish Someone Would Care
TTITLE8=Bobby is His Name
TTITLE9=Only Time Will Tell
TTITLE10=(I Don't Need Nobody to Tell Me) How to Treat My Baby
TTITLE11=In the Basement, Part 1
TTITLE12=Lover Man (Oh, Where Can He Be?)
TTITLE13=Do I Make Myself Clear
TTITLE14=I Prefer You
TTITLE15=It Must Be Your Love
TTITLE16=842-3089 (Call My Name)
TTITLE17=I'd Rather Go Blind
TTITLE18=Tell Mama
TTITLE19=Do Right Woman, Do Right Man
TTITLE20=Security
TTITLE21=I Worship the Ground You Walk On
TTITLE22=You Took It
TTITLE23=Almost Persuaded
TTITLE24=You Got It
TTITLE25=Light My Fire
EXTD=
EXTT0=
EXTT1=
EXTT2=
EXTT3=
EXTT4=
EXTT5=
EXTT6=
EXTT7=
EXTT8=
EXTT9=
EXTT10=
EXTT11=
EXTT12=
EXTT13=
EXTT14=
EXTT15=
EXTT16=
EXTT17=
EXTT18=
EXTT19=
EXTT20=
EXTT21=
EXTT22=
EXTT23=
EXTT24=
EXTT25=
PLAYORDER=
